<?xml version="1.0" encoding="UTF-8" standalone="no"?>
<svg
   id="Layer_1"
   data-name="Layer 1"
   viewBox="0 0 44 44"
   version="1.1"
   sodipodi:docname="ig_white.svg"
   inkscape:export-filename="ig_gradient.svg"
   inkscape:export-xdpi="96"
   inkscape:export-ydpi="96"
   width="44"
   height="44"
   inkscape:version="1.3 (0e150ed6c4, 2023-07-21)"
   xmlns:inkscape="http://www.inkscape.org/namespaces/inkscape"
   xmlns:sodipodi="http://sodipodi.sourceforge.net/DTD/sodipodi-0.dtd"
   xmlns:xlink="http://www.w3.org/1999/xlink"
   xmlns="http://www.w3.org/2000/svg"
   xmlns:svg="http://www.w3.org/2000/svg">
  <sodipodi:namedview
     id="namedview1"
     pagecolor="#505050"
     bordercolor="#ffffff"
     borderopacity="1"
     inkscape:showpageshadow="0"
     inkscape:pageopacity="0"
     inkscape:pagecheckerboard="1"
     inkscape:deskcolor="#505050"
     inkscape:zoom="8.784"
     inkscape:cx="17.304189"
     inkscape:cy="23.964026"
     inkscape:window-width="1360"
     inkscape:window-height="745"
     inkscape:window-x="5112"
     inkscape:window-y="-8"
     inkscape:window-maximized="1"
     inkscape:current-layer="Layer_1" />
  <defs
     id="defs1">
    <linearGradient
       id="linearGradient2"
       inkscape:collect="always">
      <stop
         style="stop-color:#ffffff;stop-opacity:1;"
         offset="0"
         id="stop2" />
      <stop
         style="stop-color:#000000;stop-opacity:1;"
         offset="1"
         id="stop3" />
    </linearGradient>
    <style
       id="style1">.cls-1{fill:#fff;}</style>
    <linearGradient
       inkscape:collect="always"
       xlink:href="#linearGradient2"
       id="linearGradient3"
       x1="512.51825"
       y1="-75.824226"
       x2="516.16119"
       y2="1177.3634"
       gradientUnits="userSpaceOnUse"
       gradientTransform="matrix(0.04302311,0,0,0.04302311,0.46088312,0.46854464)" />
  </defs>
  <path
     class="cls-1"
     d="M 13.170771,0.72668364 C 10.881942,0.83467264 9.3189121,1.1999376 7.9524977,1.7368666 6.5383284,2.2879926 5.3397041,3.0275596 4.1471042,4.2244626 2.9545026,5.4213656 2.2200985,6.6208496 1.6728444,8.0371706 1.1432299,9.4065966 0.78441712,10.970916 0.68331302,13.261037 c -0.1011041,2.29012 -0.1234766,3.026246 -0.1122906,8.867924 0.011185,5.841679 0.036999,6.573932 0.1479993,8.868784 0.1092793,2.2884 0.47325488,3.850999 1.01018238,5.217843 0.5519869,1.414171 1.2906938,2.612364 2.4880272,3.805395 1.1973327,1.193031 2.395957,1.925715 3.8157195,2.473829 1.3681353,0.528754 2.9328862,0.889288 5.2225762,0.989532 2.289689,0.100243 3.026676,0.123476 8.866633,0.11229 5.839957,-0.01118 6.575222,-0.037 8.869644,-0.145848 2.294424,-0.108849 3.848848,-0.475406 5.216124,-1.009753 1.414169,-0.553277 2.613223,-1.290694 3.805393,-2.488457 1.192171,-1.197763 1.926145,-2.398108 2.472968,-3.81529 0.530045,-1.368134 0.890149,-2.932885 0.989533,-5.220854 0.100243,-2.296144 0.123909,-3.029258 0.11272,-8.870075 -0.01118,-5.840818 -0.03743,-6.573071 -0.146279,-8.867064 C 43.333415,10.8853 42.969009,9.3274336 42.432512,7.9597296 41.879664,6.5455596 41.141818,5.3482256 39.944914,4.1543356 38.748011,2.9604436 37.546806,2.2268996 36.130055,1.6813666 34.76106,1.1517516 33.19717,0.79078864 30.907479,0.69183464 c -2.289689,-0.09895 -3.026676,-0.124337 -8.868783,-0.11315 -5.842109,0.01119 -6.573502,0.03614 -8.867925,0.147999 M 13.422026,39.614415 C 11.32465,39.523206 10.185828,39.174718 9.4269001,38.883022 8.4218801,38.495814 7.7059757,38.027723 6.9496291,37.27869 6.1932831,36.529658 5.7286335,35.811172 5.3362629,34.808303 5.041554,34.049375 4.6866137,32.911844 4.5885209,30.814467 4.4818235,28.547579 4.459451,27.866954 4.4469741,22.123799 4.4344951,16.380643 4.4564441,15.700878 4.5558235,13.43313 4.6453115,11.337473 4.9959492,10.19736 5.2872168,9.4388642 5.6744234,8.4325526 6.1407945,7.7179386 6.8915479,6.9620226 7.6423018,6.2061066 8.3586361,5.7405976 9.3623651,5.3482256 10.120432,5.0522276 11.257963,4.7002986 13.35448,4.6004846 c 2.268609,-0.107558 2.948374,-0.129069 8.690669,-0.141546 5.742294,-0.01248 6.42378,0.009 8.69325,0.108848 2.095655,0.09121 3.236199,0.438407 3.993836,0.731393 1.005449,0.387208 1.720924,0.852289 2.47684,1.604333 0.755916,0.752043 1.221856,1.465797 1.614227,2.471677 0.29643,0.7559154 0.648359,1.8930164 0.747312,3.9908234 0.107988,2.268609 0.132511,2.948805 0.142836,8.69067 0.01032,5.741864 -0.0099,6.423781 -0.109278,8.690668 -0.09164,2.097377 -0.439266,3.236629 -0.731393,3.996417 -0.387208,1.00459 -0.854009,1.720925 -1.605193,2.476411 -0.751183,0.755485 -1.466657,1.220995 -2.470818,1.613366 -0.757206,0.295569 -1.896028,0.648359 -3.990823,0.748172 -2.268609,0.106697 -2.948374,0.129069 -8.69282,0.141546 -5.744446,0.01248 -6.42206,-0.01075 -8.690669,-0.108848 M 30.958678,10.590593 A 2.5813868,2.5813868 0 1 0 33.534901,8.0049036 2.5813868,2.5813868 0 0 0 30.958678,10.590593 M 11.034674,22.10917 c 0.01205,6.100678 4.966588,11.034998 11.065975,11.023383 6.099386,-0.01162 11.037148,-4.965728 11.025532,-11.066406 C 33.114566,15.96547 28.158733,11.029859 22.058486,11.041905 15.958239,11.053951 11.023058,16.009353 11.034674,22.10917 m 3.874661,-0.0077 a 7.1706625,7.1706625 0 1 1 7.18486,7.156463 7.169802,7.169802 0 0 1 -7.18486,-7.156465"
     id="path1"
     style="fill:url(#linearGradient3);fill-opacity:1;stroke-width:0.0430231" />
</svg>
