<?xml version="1.0" standalone="no"?>
<!DOCTYPE svg PUBLIC "-//W3C//DTD SVG 20010904//EN"
 "http://www.w3.org/TR/2001/REC-SVG-20010904/DTD/svg10.dtd">
<svg version="1.0" xmlns="http://www.w3.org/2000/svg"
 width="512.000000pt" height="512.000000pt" viewBox="0 0 512.000000 512.000000"
 preserveAspectRatio="xMidYMid meet">
<metadata>
Created by potrace 1.14, written by Peter Selinger 2001-2017
</metadata>
<g transform="translate(0.000000,512.000000) scale(0.100000,-0.100000)"
fill="#000000" stroke="none">
<path d="M0 2560 l0 -2560 2560 0 2560 0 0 2560 0 2560 -2560 0 -2560 0 0
-2560z m713 2445 c134 -35 241 -122 310 -252 20 -39 37 -75 37 -81 0 -9 -79
-47 -85 -40 -1 2 -17 34 -35 73 -39 82 -113 161 -182 193 -116 54 -275 51
-394 -8 -114 -56 -164 -141 -164 -279 0 -94 27 -158 90 -215 57 -51 126 -80
301 -126 326 -86 443 -160 490 -312 l16 -51 6 86 c10 120 24 180 62 264 44 95
118 173 204 216 61 30 72 32 171 32 99 0 110 -2 171 -32 71 -35 130 -92 171
-164 44 -76 44 -86 2 -104 -20 -8 -38 -15 -40 -15 -2 0 -16 26 -30 58 -51 117
-132 173 -261 180 -75 4 -87 2 -146 -25 -140 -66 -211 -222 -210 -458 1 -230
69 -376 205 -444 51 -26 73 -31 133 -31 40 0 87 5 106 12 85 28 164 112 191
200 13 43 17 44 59 22 17 -8 32 -14 34 -12 2 2 -4 32 -12 68 -20 81 -22 282
-4 365 34 156 129 288 250 348 61 30 72 32 171 32 99 0 110 -2 172 -33 161
-79 257 -271 258 -515 0 -252 -99 -451 -267 -533 -53 -27 -67 -29 -168 -29
-101 0 -115 2 -168 28 -75 37 -144 107 -188 191 l-36 67 -33 -66 c-41 -81
-115 -156 -189 -192 -51 -25 -66 -28 -171 -28 -106 0 -119 2 -173 28 -138 68
-238 232 -260 427 -2 19 -5 1 -5 -41 -6 -281 -214 -442 -551 -426 -124 5 -192
23 -276 72 -102 60 -205 193 -213 275 -4 44 -3 46 30 58 44 16 48 15 48 -4 0
-40 65 -147 120 -198 100 -92 228 -133 374 -121 166 14 273 71 331 176 28 51
30 60 30 164 0 104 -2 113 -31 165 -53 94 -138 140 -382 205 -303 80 -417 156
-464 308 -26 88 -22 217 10 290 46 103 173 203 295 233 73 17 222 17 290 -1z
m2247 -315 l0 -200 155 0 155 0 0 189 c0 105 3 192 8 194 4 2 24 7 45 11 l37
7 0 -201 0 -200 135 0 135 0 0 -40 0 -40 -135 0 -136 0 3 -417 c3 -399 4 -420
24 -457 33 -63 71 -78 187 -73 l97 4 0 -34 c0 -43 -24 -53 -127 -53 -100 0
-148 16 -199 65 -72 69 -74 86 -74 557 l0 408 -155 0 -156 0 3 -417 c3 -399 4
-420 24 -457 33 -63 71 -78 187 -73 l97 4 0 -34 c0 -43 -24 -53 -127 -53 -100
0 -148 16 -199 65 -72 69 -74 86 -74 556 l0 408 -92 3 -93 3 -3 38 -3 37 95 0
96 0 2 192 3 193 30 6 c17 4 36 7 43 8 9 1 12 -45 12 -199z m-560 -2115 l0
-805 -45 0 -45 0 0 805 0 805 45 0 45 0 0 -805z m-1733 170 c199 -330 392
-657 430 -728 37 -70 73 -134 78 -142 7 -10 9 231 7 730 l-3 745 45 0 46 0 0
-790 0 -790 -62 0 -63 0 -362 603 c-199 331 -399 670 -445 752 l-83 150 -3
-752 -2 -753 -45 0 -45 0 0 790 0 791 73 -3 72 -3 362 -600z m1263 109 c69
-21 114 -50 173 -113 82 -88 136 -236 137 -373 l0 -58 -391 0 -391 0 7 -72 c8
-83 46 -206 77 -252 71 -104 145 -147 264 -154 151 -8 253 46 315 169 16 33
31 59 34 59 15 0 75 -36 75 -44 0 -20 -80 -134 -117 -167 -21 -17 -67 -46
-103 -63 -61 -29 -72 -31 -185 -31 -110 0 -125 2 -178 27 -77 36 -165 125
-205 208 -50 104 -66 179 -66 320 0 86 5 145 17 190 48 180 158 311 300 355
58 19 173 18 237 -1z m1055 1 c74 -22 149 -79 195 -147 22 -33 40 -67 40 -75
0 -12 -68 -49 -75 -41 -1 2 -12 22 -24 46 -30 60 -93 117 -148 136 -57 20
-174 21 -236 2 -105 -31 -153 -99 -144 -202 9 -115 59 -152 267 -199 300 -67
382 -126 397 -288 9 -97 -16 -167 -80 -232 -70 -69 -140 -96 -268 -102 -150
-8 -259 25 -343 105 -40 39 -96 118 -96 137 0 9 60 45 74 45 3 0 14 -20 26
-45 31 -63 106 -128 175 -150 80 -25 230 -17 297 15 93 43 136 124 123 226
-14 111 -77 155 -290 203 -220 50 -305 92 -346 173 -26 51 -35 147 -20 204 24
88 106 162 210 190 64 17 208 17 266 -1z m888 -23 c81 -40 144 -107 192 -206
45 -90 65 -185 65 -309 0 -252 -99 -451 -267 -533 -53 -27 -67 -29 -168 -29
-101 0 -115 2 -168 28 -113 56 -207 185 -243 333 -21 85 -24 284 -5 369 30
139 119 274 219 332 71 42 119 53 218 50 79 -2 100 -7 157 -35z m928 23 c62
-21 109 -63 144 -126 l30 -54 3 -452 3 -453 -46 0 -45 0 0 413 c0 464 -3 489
-65 551 -70 70 -205 69 -326 -3 -34 -20 -95 -69 -135 -110 l-74 -74 0 -388 0
-389 -45 0 -45 0 0 540 0 540 45 0 45 0 0 -107 0 -106 73 70 c81 79 138 118
212 144 62 23 166 24 226 4z m-4253 -1732 c128 -324 258 -660 291 -748 32 -88
62 -160 66 -160 4 0 30 65 58 145 28 80 157 415 286 745 l237 600 82 3 82 3 0
-791 0 -790 -51 0 -50 0 3 750 c2 413 1 750 -2 750 -3 0 -27 -60 -53 -133 -26
-72 -157 -409 -290 -747 l-243 -615 -61 -3 c-42 -2 -62 1 -66 10 -139 351
-496 1265 -527 1348 -23 63 -46 122 -51 130 -5 9 -9 -301 -9 -737 l0 -753 -45
0 -45 0 0 790 0 790 78 0 79 0 231 -587z m3092 392 l0 -75 -70 0 -70 0 0 75 0
75 70 0 70 0 0 -75z m-465 -300 c74 -22 149 -79 195 -147 22 -33 40 -67 40
-75 0 -12 -68 -49 -75 -41 -1 2 -12 22 -24 46 -30 60 -93 117 -148 136 -57 20
-174 21 -236 2 -105 -31 -153 -99 -144 -202 9 -115 59 -152 267 -199 300 -67
382 -126 397 -288 9 -97 -16 -167 -80 -232 -70 -69 -140 -96 -268 -102 -150
-8 -259 25 -343 105 -40 39 -96 118 -96 137 0 9 60 45 74 45 3 0 14 -20 26
-45 31 -63 106 -128 175 -150 80 -25 230 -17 297 15 93 43 136 124 123 226
-14 111 -77 155 -290 203 -220 50 -305 92 -346 173 -26 51 -35 147 -20 204 24
88 106 162 210 190 64 17 208 17 266 -1z m1127 -23 c70 -34 129 -91 170 -163
44 -76 44 -86 2 -104 -20 -8 -38 -15 -40 -15 -2 0 -16 26 -30 58 -51 117 -132
173 -261 180 -75 4 -87 2 -146 -25 -140 -66 -211 -222 -210 -458 1 -230 69
-376 205 -444 51 -26 73 -31 133 -31 40 0 87 5 106 12 85 28 164 112 191 200
13 43 15 44 63 21 41 -19 40 -27 -7 -110 -39 -70 -109 -137 -177 -170 -51 -25
-66 -28 -171 -28 -106 0 -119 2 -173 28 -113 56 -207 185 -243 333 -21 85 -24
284 -5 369 30 139 119 274 219 332 71 42 119 53 218 50 79 -2 100 -7 156 -35z
m-2392 -403 c0 -468 1 -480 61 -540 97 -97 282 -66 434 73 112 103 105 68 105
507 l0 381 45 0 45 0 0 -540 0 -540 -45 0 -45 0 0 104 0 104 -67 -70 c-93 -96
-200 -149 -312 -156 -106 -6 -169 15 -232 78 -78 78 -79 84 -79 587 l0 433 45
0 45 0 0 -421z m1710 -119 l0 -540 -45 0 -45 0 0 540 0 540 45 0 45 0 0 -540z"/>
<path d="M2194 4401 c-137 -65 -208 -222 -207 -456 1 -230 69 -376 205 -444
50 -25 73 -31 128 -31 95 0 155 23 216 84 86 87 134 228 134 393 -1 179 -45
309 -135 399 -89 89 -223 111 -341 55z"/>
<path d="M1720 2781 c-73 -22 -158 -100 -199 -179 -24 -48 -51 -144 -51 -184
l0 -28 341 0 341 0 -7 43 c-29 187 -117 312 -245 347 -41 11 -144 12 -180 1z"/>
<path d="M3564 2761 c-137 -65 -208 -222 -207 -456 1 -230 69 -376 205 -444
50 -25 73 -31 128 -31 95 0 155 23 216 84 86 87 134 228 134 393 -1 179 -45
309 -135 399 -89 89 -223 111 -341 55z"/>
</g>
</svg>
