<svg version="1.1" id="Layer_1" xmlns="http://www.w3.org/2000/svg" x="0" y="0" viewBox="0 0 211.1 48" xml:space="preserve">
  <style>
    .st0{fill:#fff}.st1{fill:#ccc}
  </style>
  <path class="st0" d="M137.9 26.4h2.9c.4 4 2.8 6 7.2 6 3.2 0 5.6-1.5 5.6-4.3 0-3.2-2.8-4-7-4.9-4.1-.9-7.6-2.1-7.6-6.4 0-3.8 3.2-6.1 7.9-6.1 5.8 0 8.2 2.9 8.8 7.3H153c-.4-3.3-2.6-5-6-5-3.1 0-5.2 1.3-5.2 3.8 0 2.6 2.6 3.4 6.1 4.1 4.5.9 8.7 2 8.7 7.3 0 4.3-3.6 6.8-8.6 6.8-6.7-.3-9.9-3.9-10.1-8.6zM157.9 17.4h2.4v-5.3h2.6v5.3h3.3v2.2H163v10.9c0 1.1.6 1.5 1.7 1.5.5 0 1.1-.1 1.4-.3h.1V34c-.6.1-1.3.3-2.1.3-2.2 0-3.7-.9-3.7-3.3V19.6H158l-.1-2.2zM167.6 25.9c0-4.9 3.1-8.9 8.1-8.9s8.1 4 8.1 8.9-3.1 8.9-8.1 8.9c-5-.1-8.1-4-8.1-8.9zm13.5 0c0-3.7-1.9-6.7-5.4-6.7-3.6 0-5.4 2.9-5.4 6.7s1.9 6.6 5.4 6.6c3.5 0 5.4-2.9 5.4-6.6zM188.7 20.2c1.1-1.6 2.8-3 5.1-3 .5 0 .8.1 1.1.2V20h-.1c-.4-.1-.6-.2-1.1-.2-2.6 0-4.9 2-4.9 5.1v9.3h-2.6V17.4h2.6l-.1 2.8zM195.4 25.9c0-4.9 3.2-8.9 8-8.9 5 0 7.7 3.9 7.7 9.4h-13c.2 3.4 2 6 5.4 6 2.4 0 4.1-1.1 4.7-3.4h2.6c-.8 3.7-3.4 5.7-7.2 5.7-5.2 0-8.2-3.9-8.2-8.8zm2.7-1.4h10.1c-.2-3.4-1.9-5.4-4.9-5.4-3.1 0-4.8 2.3-5.2 5.4z"/>
  <path class="st1" d="M42.5 33.6V11.2L23.1 0v8.6l7.6 4.4c.3.1.3.6 0 .8l-9 5.2c-.3.1-.6.1-.8 0l-9-5.2c-.3-.1-.3-.6 0-.8l7.6-4.4V0L0 11.2v22.3-.1.1l7.4-4.3v-8.7c0-.3.4-.5.6-.4l9 5.2c.3.1.4.4.4.8v10.4c0 .3-.4.5-.6.4l-7.6-4.4-7.4 4.3L21.2 48l19.3-11.2-7.4-4.3-7.6 4.5c-.3.2-.6-.1-.6-.4V26.2c0-.3.2-.6.4-.8l9-5.2c.3-.2.6.1.6.4v8.7l7.6 4.3z"/>
  <g>
    <path d="M21.3 48l19.3-11.2-7.4-4.3-7.6 4.5c-.3.2-.6-.1-.6-.4V26.2c0-.3.2-.6.4-.8l9-5.2c.3-.2.6.1.6.4v8.7l7.4 4.3V11.2L21.3 23.5V48z" fill="#a6a6a6"/>
    <path class="st1" d="M16.9 36.9l-7.6-4.4-7.4 4.3L21.2 48V23.4L0 11.2v22.3-.1.1l7.4-4.3v-8.7c0-.3.4-.5.6-.4l9 5.2c.3.1.4.4.4.8v10.4c.2.3-.2.5-.5.4z"/>
  </g>
  <g>
    <path class="st0" d="M53.6 26.2V12.6h5.7v13.8c0 2.2 1.1 3.8 4 3.8 2.6 0 3.9-1.6 3.9-3.9V12.6h5.7v13.6c0 5.3-3.2 8.6-9.6 8.6-6.6 0-9.7-3.2-9.7-8.6zM75.8 17.9h5v2.2h.2c1.2-1.8 2.8-2.7 5.1-2.7 3.6 0 5.7 2.6 5.7 6.3v10.7h-5.2v-9.6c0-1.7-.9-2.9-2.6-2.9-1.7 0-2.9 1.5-2.9 3.4v9.1H76V17.9h-.2zM94.5 11.4h5.2v4.2h-5.2v-4.2zm0 6.5h5.2v16.5h-5.2V17.9zM103.9 30v-7.9h-2.2v-4.3h2.2v-5.2h5.1v5.2h3v4.3h-3v6.8c0 1.3.7 1.6 1.9 1.6.4 0 1-.1 1.1-.1v3.8c-.4.1-1.5.3-2.9.3-3.1 0-5.2-1-5.2-4.5zM115.2 35.7h1.8c1.5 0 2.2-.6 2.2-1.7 0-.7-.3-1.7-1-3.4l-4.9-12.7h5.6l2.2 7c.5 1.6 1 3.8 1 3.8h.1s.4-2.2 1-3.8l2.2-7h5.2l-5.7 16.7c-1.3 3.9-2.9 5.2-6.2 5.2h-3.4l-.1-4.1zM23.1 0v8.6l7.6 4.4c.3.1.3.6 0 .8l-9 5.2c-.3.1-.6.1-.8 0l-9-5.2c-.3-.1-.3-.6 0-.8l7.6-4.4V0L0 11.2l21.3 12.3 21.3-12.3L23.1 0z"/>
  </g>
</svg>
