<?xml version="1.0" encoding="UTF-8" standalone="no"?>
<!-- Created with Inkscape (http://www.inkscape.org/) -->

<svg
   width="44mm"
   height="32mm"
   viewBox="0 0 44 32"
   version="1.1"
   id="svg1"
   inkscape:export-filename="yt_gradient.svg"
   inkscape:export-xdpi="12.095238"
   inkscape:export-ydpi="12.095238"
   xmlns:inkscape="http://www.inkscape.org/namespaces/inkscape"
   xmlns:sodipodi="http://sodipodi.sourceforge.net/DTD/sodipodi-0.dtd"
   xmlns:xlink="http://www.w3.org/1999/xlink"
   xmlns="http://www.w3.org/2000/svg"
   xmlns:svg="http://www.w3.org/2000/svg">
  <sodipodi:namedview
     id="namedview1"
     pagecolor="#505050"
     bordercolor="#ffffff"
     borderopacity="1"
     inkscape:showpageshadow="0"
     inkscape:pageopacity="0"
     inkscape:pagecheckerboard="1"
     inkscape:deskcolor="#505050"
     inkscape:document-units="mm" />
  <defs
     id="defs1">
    <linearGradient
       inkscape:collect="always"
       xlink:href="#linearGradient4"
       id="linearGradient5"
       x1="948.91107"
       y1="32.529076"
       x2="948.91107"
       y2="985.95874"
       gradientUnits="userSpaceOnUse"
       gradientTransform="matrix(0.03457214,0,0,-0.03527778,0.98176656,31.104808)" />
    <linearGradient
       id="linearGradient4"
       inkscape:collect="always">
      <stop
         style="stop-color:#2d2d2d;stop-opacity:1;"
         offset="0"
         id="stop4" />
      <stop
         style="stop-color:#f9f9f9;stop-opacity:1;"
         offset="1"
         id="stop5" />
    </linearGradient>
  </defs>
  <g
     inkscape:label="Layer 1"
     inkscape:groupmode="layer"
     id="layer1">
    <path
       d="M 17.781708,22.533398 V 9.6761678 L 28.693266,16.104868 Z M 42.103986,5.7892978 c -0.48296,-1.84383 -1.90596,-3.29614 -3.71304,-3.78894 -3.27551,-0.8955999 -16.40928,-0.8955999 -16.40928,-0.8955999 0,0 -13.1336505,0 -16.4090885,0.8955999 -1.806935,0.4928 -3.230193,1.94511 -3.7131269,3.78894 -0.87767504,3.34229 -0.87767504,10.3154302 -0.87767504,10.3154302 0,0 0,6.97343 0.87767504,10.31558 0.4829339,1.84368 1.9061919,3.29613 3.7131269,3.78878 3.275438,0.89586 16.4090885,0.89586 16.4090885,0.89586 0,0 13.13377,0 16.40928,-0.89586 1.80708,-0.49265 3.23008,-1.9451 3.71304,-3.78878 0.87779,-3.34215 0.87779,-10.31558 0.87779,-10.31558 0,0 0,-6.9731402 -0.87779,-10.3154302"
       style="fill:url(#linearGradient5);fill-opacity:1;fill-rule:nonzero;stroke:none;stroke-width:0.034923"
       id="path12" />
  </g>
</svg>
